<?xml version="1.0" encoding="UTF-8"?>
<svg xmlns="http://www.w3.org/2000/svg" xmlns:xlink="http://www.w3.org/1999/xlink" width="1280px" height="1280px" viewBox="0 0 1280 1279" version="1.1">
<defs>
<linearGradient id="linear0" gradientUnits="userSpaceOnUse" x1="0.00639" y1="0" x2="0.99361" y2="1" gradientTransform="matrix(1041.242485,420.493047,-431.225475,1066.822667,359.218057,-104.15981)">
<stop offset="0" style="stop-color:rgb(100%,56.078431%,44.313725%);stop-opacity:1;"/>
<stop offset="1" style="stop-color:rgb(100%,24.313725%,33.333333%);stop-opacity:1;"/>
</linearGradient>
</defs>
<g id="surface1">
<path style=" stroke:none;fill-rule:evenodd;fill:url(#linear0);" d="M 948.148438 794.1875 L 829.082031 1088.75 L 534.992188 969.988281 L 638.960938 712.785156 C 647.300781 692.148438 670.796875 682.179688 691.441406 690.519531 Z M 458.488281 595.933594 C 539.699219 628.730469 578.9375 721.121094 546.125 802.292969 L 545.875 802.90625 C 513.066406 884.078125 420.632812 923.296875 339.421875 890.5 C 258.210938 857.703125 218.976562 765.3125 251.789062 684.144531 L 252.035156 683.527344 C 284.847656 602.355469 377.28125 563.140625 458.488281 595.933594 Z M 745.007812 309.011719 L 641.042969 566.214844 C 632.699219 586.851562 609.203125 596.820312 588.558594 588.480469 L 331.851562 484.8125 L 450.917969 190.246094 Z M 1088.238281 447.621094 L 969.167969 742.1875 L 712.460938 638.519531 C 691.816406 630.179688 681.84375 606.695312 690.183594 586.058594 L 794.148438 328.855469 Z M 1088.238281 447.621094 "/>
</g>
</svg>
