<?xml version="1.0" encoding="UTF-8"?>
<svg xmlns="http://www.w3.org/2000/svg" xmlns:xlink="http://www.w3.org/1999/xlink" width="680px" height="680px" viewBox="0 0 680 679" version="1.1">
<defs>
<linearGradient id="linear0" gradientUnits="userSpaceOnUse" x1="0.00639" y1="0" x2="0.99361" y2="1" gradientTransform="matrix(553.159127,223.232441,-229.088118,566.357526,190.833636,-55.294983)">
<stop offset="0" style="stop-color:rgb(100%,56.078431%,44.313725%);stop-opacity:1;"/>
<stop offset="1" style="stop-color:rgb(100%,24.313725%,33.333333%);stop-opacity:1;"/>
</linearGradient>
</defs>
<g id="surface1">
<path style=" stroke:none;fill-rule:evenodd;fill:url(#linear0);" d="M 503.703125 421.621094 L 440.449219 578 L 284.214844 514.949219 L 339.445312 378.40625 C 343.878906 367.449219 356.359375 362.160156 367.328125 366.585938 Z M 243.574219 316.371094 C 286.714844 333.78125 307.558594 382.832031 290.128906 425.921875 L 289.996094 426.25 C 272.566406 469.34375 223.460938 490.164062 180.316406 472.75 C 137.175781 455.339844 116.332031 406.292969 133.761719 363.199219 L 133.894531 362.875 C 151.324219 319.78125 200.429688 298.960938 243.574219 316.371094 Z M 395.785156 164.050781 L 340.554688 300.59375 C 336.121094 311.550781 323.640625 316.839844 312.671875 312.414062 L 176.296875 257.378906 L 239.550781 101 Z M 578.125 237.632812 L 514.871094 394.015625 L 378.496094 338.976562 C 367.527344 334.550781 362.226562 322.085938 366.660156 311.128906 L 421.890625 174.585938 Z M 578.125 237.632812 "/>
</g>
</svg>
